# xmcd CD Database Entry
#
# Track frame offsets:
# 150
# 19127
# 36976
# 57460
# 74909
# 89181
# 122326
# 138587
# 154758
# 169859
# 194260
# 222902
# 267294
# 293567
#
# Disc length: 4324 seconds
#
# Revision: 4
# Processed by: cddbd v1.4b41PL1 Copyright (c) Steve Scherf et al.
# Submitted via: tcd 2.0b
#
DISCID=dc10e20e
DTITLE=DJ Jan - Trance N Dance  Vol 3
DYEAR=1900
DGENRE=
TTITLE0=Pornostar
TTITLE1=Toothbrush
TTITLE2=Freeze
TTITLE3=Invasion Of The Body Snatchers
TTITLE4=Horizons
TTITLE5=Innerspace
TTITLE6=You Make Me Feel
TTITLE7=Sense Your Mind
TTITLE8=Join Me
TTITLE9=Trance Maniac
TTITLE10=Sunrise At Palamos
TTITLE11=Memories Of The Light
TTITLE12=Hudson Street
TTITLE13=Xsanto
EXTD=
EXTT0=
EXTT1=
EXTT2=
EXTT3=
EXTT4=
EXTT5=
EXTT6=
EXTT7=
EXTT8=
EXTT9=
EXTT10=
EXTT11=
EXTT12=
EXTT13=
PLAYORDER=
